<?xml version="1.0" encoding="utf-8"?>
<!-- Generator: Adobe Illustrator 16.0.0, SVG Export Plug-In . SVG Version: 6.00 Build 0)  -->
<!DOCTYPE svg PUBLIC "-//W3C//DTD SVG 1.1//EN" "http://www.w3.org/Graphics/SVG/1.1/DTD/svg11.dtd">
<svg version="1.1" id="Layer_1" xmlns="http://www.w3.org/2000/svg" xmlns:xlink="http://www.w3.org/1999/xlink" x="0px" y="0px"
	 width="454px" height="81.827px" viewBox="0 0 454 81.827" enable-background="new 0 0 454 81.827" xml:space="preserve">
<g>
	<path fill="#b2b2b2" d="M85.078,28.329H96.69c2.956,0,5.286,0.813,6.765,2.293c1.15,1.15,1.74,2.551,1.74,4.291v0.074
		c0,3.104-1.775,4.771-3.701,5.77c3.035,1.031,5.143,2.771,5.143,6.281v0.076c0,4.621-3.81,7.098-9.575,7.098H85.078V28.329z
		 M95.765,39.239c2.922,0,4.879-1.148,4.879-3.516v-0.074c0-2.031-1.625-3.291-4.547-3.291h-6.545v6.881H95.765z M97.093,50.186
		c3.107,0,4.996-1.225,4.996-3.553v-0.076c0-2.178-1.738-3.471-5.326-3.471h-7.211v7.1H97.093z"/>
	<path fill="#b2b2b2" d="M110.31,47.114V34.688h4.473v11.096c0,3.031,1.516,4.77,4.18,4.77c2.588,0,4.4-1.809,4.4-4.846v-11.02
		h4.475v19.523h-4.475v-3.027c-1.26,1.85-3.07,3.436-6.102,3.436C112.863,54.62,110.31,51.667,110.31,47.114"/>
	<path fill="#b2b2b2" d="M131.656,44.528v-0.076c0-5.584,3.955-10.17,9.543-10.17c6.209,0,9.354,4.883,9.354,10.502
		c0,0.408-0.035,0.813-0.07,1.262H136.13c0.481,3.178,2.735,4.953,5.619,4.953c2.184,0,3.735-0.813,5.29-2.33l2.625,2.33
		c-1.847,2.217-4.397,3.658-7.985,3.658C136.019,54.657,131.656,50.553,131.656,44.528 M146.116,43.086
		c-0.294-2.887-1.999-5.141-4.955-5.141c-2.739,0-4.659,2.104-5.065,5.141H146.116z"/>
	<path fill="#b2b2b2" d="M154.333,34.688h4.476v3.033c1.26-1.85,3.072-3.439,6.102-3.439c4.398,0,6.954,2.959,6.954,7.506v12.424
		h-4.476V43.124c0-3.035-1.52-4.771-4.179-4.771c-2.589,0-4.401,1.811-4.401,4.844v11.016h-4.476V34.688z"/>
	<path fill="#b2b2b2" d="M175.458,44.565v-0.074c0-5.584,4.439-10.209,10.428-10.209c5.992,0,10.391,4.551,10.391,10.133v0.076
		c0,5.545-4.434,10.166-10.462,10.166C179.859,54.657,175.458,50.112,175.458,44.565 M191.804,44.565v-0.074
		c0-3.441-2.479-6.287-5.989-6.287c-3.589,0-5.882,2.809-5.882,6.211v0.076c0,3.402,2.479,6.285,5.953,6.285
		C189.513,50.776,191.804,47.93,191.804,44.565"/>
	<path fill="#b2b2b2" d="M198.507,51.667l1.998-3.035c2.108,1.592,4.403,2.402,6.397,2.402c1.922,0,3.033-0.811,3.033-2.107v-0.072
		c0-1.518-2.071-2.035-4.364-2.74c-2.886-0.811-6.102-1.992-6.102-5.732v-0.07c0-3.701,3.068-5.955,6.951-5.955
		c2.44,0,5.106,0.85,7.174,2.221l-1.773,3.182c-1.886-1.148-3.884-1.85-5.509-1.85c-1.741,0-2.738,0.811-2.738,1.963v0.066
		c0,1.406,2.106,1.998,4.399,2.74c2.847,0.887,6.063,2.182,6.063,5.695v0.07c0,4.105-3.179,6.139-7.242,6.139
		C204.017,54.583,200.948,53.588,198.507,51.667"/>
	<path fill="#b2b2b2" d="M237.904,28.143h4.215l11.392,26.068h-4.809l-2.626-6.248h-12.239l-2.664,6.248h-4.657L237.904,28.143z
		 M244.411,43.934l-4.474-10.354L235.5,43.934H244.411z"/>
	<path fill="#b2b2b2" d="M256.778,27.444h4.809v4.25h-4.809V27.444z M256.962,34.688h4.473v19.523h-4.473V34.688z"/>
	<path fill="#b2b2b2" d="M266.543,34.688h4.476v4.4c1.218-2.918,3.475-4.914,6.914-4.771v4.734h-0.259
		c-3.92,0-6.655,2.555-6.655,7.732v7.428h-4.476V34.688z"/>
	<path fill="#b2b2b2" d="M279.346,44.528v-0.076c0-5.584,3.955-10.17,9.541-10.17c6.212,0,9.354,4.883,9.354,10.502
		c0,0.408-0.038,0.813-0.075,1.262h-14.344c0.477,3.178,2.733,4.953,5.618,4.953c2.183,0,3.732-0.813,5.287-2.33l2.629,2.33
		c-1.851,2.217-4.404,3.658-7.99,3.658C283.708,54.657,279.346,50.553,279.346,44.528 M293.803,43.086
		c-0.295-2.887-1.995-5.141-4.953-5.141c-2.737,0-4.658,2.104-5.066,5.141H293.803z"/>
	<path fill="#b2b2b2" d="M300.435,51.667l1.995-3.035c2.108,1.592,4.4,2.402,6.399,2.402c1.92,0,3.029-0.811,3.029-2.107v-0.072
		c0-1.518-2.071-2.035-4.362-2.74c-2.884-0.811-6.102-1.992-6.102-5.732v-0.07c0-3.701,3.072-5.955,6.954-5.955
		c2.438,0,5.101,0.85,7.172,2.221l-1.778,3.182c-1.884-1.148-3.88-1.85-5.505-1.85c-1.743,0-2.737,0.811-2.737,1.963v0.066
		c0,1.406,2.106,1.998,4.401,2.74c2.846,0.887,6.063,2.182,6.063,5.695v0.07c0,4.105-3.181,6.139-7.249,6.139
		C305.946,54.583,302.873,53.588,300.435,51.667"/>
	<path fill="#b2b2b2" d="M329.512,41.344v-0.07c0-7.361,5.511-13.387,13.351-13.387c4.767,0,7.651,1.66,10.129,4.027l-2.92,3.365
		c-2.071-1.924-4.289-3.217-7.247-3.217c-4.957,0-8.542,4.068-8.542,9.135v0.076c0,5.064,3.585,9.203,8.542,9.203
		c3.178,0,5.215-1.293,7.432-3.363l2.921,2.959c-2.697,2.809-5.657,4.584-10.502,4.584C335.133,54.657,329.512,48.78,329.512,41.344
		"/>
	<path fill="#b2b2b2" d="M356.778,27.444h4.808v4.25h-4.808V27.444z M356.962,34.688h4.473v19.523h-4.473V34.688z"/>
	<path fill="#b2b2b2" d="M366.325,47.114V34.688h4.469v11.096c0,3.031,1.52,4.77,4.183,4.77c2.588,0,4.399-1.809,4.399-4.846v-11.02
		h4.477v19.523h-4.477v-3.027c-1.256,1.85-3.067,3.436-6.1,3.436C368.874,54.62,366.325,51.667,366.325,47.114"/>
	<path fill="#b2b2b2" d="M387.745,44.491v-0.076c0-6.469,4.4-10.133,9.06-10.133c3.218,0,5.25,1.629,6.656,3.439V27.219h4.474
		v26.992h-4.474v-3.25c-1.441,2.033-3.476,3.658-6.656,3.658C392.215,54.62,387.745,50.961,387.745,44.491 M403.532,44.491v-0.076
		c0-3.771-2.662-6.248-5.658-6.248c-3.065,0-5.622,2.365-5.622,6.248v0.076c0,3.771,2.593,6.248,5.622,6.248
		C400.87,50.739,403.532,48.225,403.532,44.491"/>
	<path fill="#b2b2b2" d="M424.734,54.211v-2.402c-1.331,1.592-3.366,2.811-6.323,2.811c-3.7,0-6.953-2.105-6.953-6.025V48.52
		c0-4.33,3.366-6.398,7.915-6.398c2.365,0,3.881,0.332,5.4,0.814v-0.369c0-2.695-1.703-4.176-4.812-4.176
		c-2.179,0-3.809,0.477-5.582,1.217l-1.222-3.586c2.147-0.961,4.254-1.627,7.435-1.627c5.771,0,8.58,3.031,8.58,8.246v11.57H424.734
		z M424.847,46.045c-1.15-0.449-2.738-0.779-4.479-0.779c-2.809,0-4.471,1.148-4.471,3.035v0.072c0,1.85,1.662,2.881,3.768,2.881
		c2.961,0,5.182-1.662,5.182-4.105V46.045z"/>
	<path fill="#b2b2b2" d="M432.768,44.491v-0.076c0-6.469,4.399-10.133,9.059-10.133c3.219,0,5.252,1.629,6.658,3.439V27.219h4.472
		v26.992h-4.472v-3.25c-1.445,2.033-3.479,3.658-6.658,3.658C437.243,54.62,432.768,50.961,432.768,44.491 M448.56,44.491v-0.076
		c0-3.771-2.665-6.248-5.658-6.248c-3.072,0-5.621,2.365-5.621,6.248v0.076c0,3.771,2.586,6.248,5.621,6.248
		C445.895,50.739,448.56,48.225,448.56,44.491"/>
	<path fill="#b2b2b2" d="M34.833,13.942c-0.209,0-0.38,0.17-0.38,0.379s0.171,0.379,0.38,0.379s0.372-0.17,0.372-0.379
		S35.042,13.942,34.833,13.942"/>
	<path fill="#b2b2b2" d="M53.995,19.807l-0.06-0.006c-1.975-0.078-3.86-0.791-5.682-1.479c-0.742-0.281-1.509-0.57-2.268-0.809
		c-1.494-0.479-2.83-0.736-4.077-0.797c-0.332-0.016-0.634-0.027-0.95-0.027c-0.844,0-2.025,0.082-2.762,0.797
		c-0.215-0.93-0.461-1.973-0.852-2.963c-0.373-0.939-0.93-2.057-1.93-2.357c-0.164-0.051-0.33-0.072-0.494-0.072
		c-0.99,0-1.748,0.891-2.117,1.418l-0.164,0.242c-0.434,0.627-0.648,0.939-0.588,1.23c0.069,0.297,0.428,0.52,1.238,0.984
		c0.344,0.199,0.409,0.709,0.454,1.084l0.005,0.043c0.077,0.566,0.111,1.115,0.105,1.639c-1.148-1.182-2.906-1.645-4.492-1.945
		c-0.422-0.078-0.868-0.121-1.318-0.121c-1.824,0-3.611,0.682-4.793,1.191c-0.666,0.293-1.336,0.611-1.984,0.924
		c-1.248,0.6-2.535,1.215-3.875,1.627c-0.408,0.127-0.842,0.227-1.375,0.318h-0.022c-0.005,0.006-0.017,0.006-0.032,0.006
		l-0.039,0.006c-0.203,0.039-0.549,0.148-0.615,0.461c-0.068,0.314-0.027,0.518,0.396,0.854c0.979,0.555,2.171,0.824,3.634,0.824
		c0.303,0,0.609-0.012,0.945-0.033c0.439-0.027,0.885-0.082,1.352-0.143c0.672-0.088,1.358-0.176,2.023-0.176
		c0.457,0,0.857,0.043,1.221,0.125c1.088,0.254,1.736,1.332,2.303,2.281c0.143,0.236,0.275,0.463,0.416,0.672l0.008,0.016
		c0.263,0.396,0.703,1.061,0.676,1.557c-0.027,0.488-0.693,0.891-1.176,1.182c-0.127,0.082-0.254,0.154-0.348,0.219
		c-0.152,0.105-0.334,0.221-0.527,0.348c-1.088,0.691-2.578,1.643-2.406,2.924c0.076,0.621,0.604,1.133,1.244,1.209
		c0.052,0.012,0.113,0.012,0.174,0.012c0.455,0,0.863-0.209,1.258-0.412c0.166-0.088,0.338-0.176,0.5-0.242
		c0.518-0.209,1.045-0.318,1.563-0.318c0.879,0,1.724,0.297,2.508,0.885c0.259,0.191,0.486,0.428,0.713,0.654
		c0.242,0.242,0.492,0.494,0.775,0.699c0.229,0.164,0.656,0.334,1.014,0.334c0.359,0,0.596-0.176,0.662-0.496
		c0.127-0.631,0.121-1.295,0.121-1.939c-0.006-0.512-0.006-1.045,0.056-1.551c0.038-0.307,0.12-0.939,0.521-1.131
		c0.135-0.066,0.287-0.094,0.473-0.094c0.205,0,0.421,0.033,0.627,0.064c0.287,0.051,0.594,0.094,0.836,0.063
		c1.148-0.16,2.111-1.105,2.566-2.529c0.219-0.479,0.469-0.688,0.957-0.809c0.578-0.137,0.943-0.609,1.293-1.072
		c0.088-0.115,0.176-0.225,0.264-0.33c0.725-0.861,1.604-1.246,2.85-1.246c0.229,0,0.475,0.01,0.748,0.037
		c0.256,0.027,0.514,0.055,0.766,0.088c0.666,0.078,1.301,0.148,1.949,0.148c0.694,0,1.317-0.094,1.891-0.279
		c1.496-0.5,2.813-1.467,4.018-2.441l0.176-0.143c0.34-0.285,0.418-0.467,0.328-0.785C54.583,19.899,54.158,19.823,53.995,19.807
		 M28.232,24.254c-0.297-0.496-0.6-1-0.973-1.447c-0.875-1.061-2.029-1.527-3.756-1.527c-0.72,0-1.479,0.076-2.216,0.16
		c-0.724,0.076-1.478,0.152-2.187,0.152c-0.373,0-0.709-0.021-1.022-0.064c1.243-0.414,2.44-0.984,3.595-1.539
		c1.242-0.6,2.528-1.221,3.869-1.633c0.827-0.254,1.693-0.385,2.574-0.385c1.604,0,3.087,0.422,4.296,1.219
		c1.007,0.666,1.3,1.369,0.957,2.359c-0.356,1.045-0.983,2.078-1.86,3.066c-0.058,0.061-0.117,0.139-0.193,0.221
		c-0.381,0.455-1.01,1.215-1.551,1.215c-0.166,0-0.309-0.072-0.44-0.215C28.896,25.364,28.556,24.797,28.232,24.254 M38.337,25.721
		c-0.119,0.873-0.468,1.621-0.998,2.105c-0.473,0.434-0.994,0.521-1.682,0.521c-0.113,0-0.236-0.006-0.352-0.006
		c-0.123,0-0.248-0.004-0.379-0.004c-0.441,0-0.81,0.148-1.094,0.434c-0.828,0.842-0.813,2.682-0.803,3.902v0.396l-0.079-0.078
		c-1.048-0.973-2.032-1.896-3.511-2.121c-0.23-0.039-0.473-0.055-0.715-0.055c-0.445,0-0.918,0.061-1.402,0.176
		c-0.418,0.104-0.775,0.264-1.154,0.439c-0.148,0.061-0.291,0.127-0.441,0.193c-0.18,0.07-0.416,0.148-0.559,0.148
		c-0.043,0-0.076-0.006-0.095-0.021c-0.005-0.018-0.005-0.045,0.007-0.082c0.143-0.5,0.682-0.859,1.111-1.145l0.115-0.078
		c1.1-0.742,2.127-1.484,3.146-2.275c1.862-1.445,3.911-3.252,4.929-5.705c0.578-1.381,0.824-2.963,0.721-4.584l-0.006-0.094
		c-0.045-0.666-0.088-1.357-0.357-1.969c-0.217-0.506-0.615-0.742-1.033-0.988c-0.078-0.045-0.154-0.088-0.227-0.133
		c0.193-0.367,0.746-1.33,1.369-1.33c0.242,0,0.478,0.148,0.695,0.445c0.741,1.012,1.08,2.227,1.377,3.303
		c0.051,0.182,0.107,0.387,0.166,0.594C37.675,19.79,38.659,23.258,38.337,25.721 M51.062,21.792
		c-1.014,0.57-1.92,0.846-2.778,0.846H48.2c-0.56-0.01-1.126-0.082-1.675-0.16c-0.473-0.061-0.963-0.125-1.443-0.148
		c-1.188-0.055-2.113,0.133-2.855,0.578c-0.514,0.309-0.871,0.748-1.221,1.176c-0.246,0.309-0.511,0.621-0.824,0.885
		c-0.094,0.078-0.215,0.166-0.334,0.166h-0.01c-0.136-0.004-0.145-0.094-0.136-0.291c0-0.051,0.007-0.094,0-0.131
		c-0.021-0.447-0.087-0.893-0.144-1.32l-0.037-0.248c-0.104-0.748-0.217-1.545-0.401-2.326c-0.028-0.137-0.082-0.295-0.136-0.467
		c-0.215-0.688-0.484-1.545,0.049-1.984c0.324-0.264,0.873-0.313,1.242-0.346c0,0,0.418-0.039,0.871-0.045h0.168
		c0.5,0,1.018,0.033,1.527,0.1c0.942,0.127,1.936,0.373,3.135,0.77c0.642,0.215,1.291,0.457,1.92,0.693
		c1.455,0.539,2.955,1.1,4.52,1.369C51.917,21.268,51.484,21.555,51.062,21.792"/>
	<path fill="#b2b2b2" d="M67.22,33.362c-0.433-2.76-1.115-5.48-2.041-8.113c-0.896-2.523-2.017-4.969-3.359-7.287
		c-1.047-1.793-2.227-3.514-3.545-5.125c-1.682-2.057-3.588-3.936-5.694-5.563c-2.048-1.584-4.286-2.92-6.664-3.941
		c-2.37-1.018-4.879-1.715-7.433-2.051c-2.602-0.34-5.256-0.307-7.846,0.099c-2.545,0.396-5.029,1.161-7.371,2.231
		c-2.358,1.084-4.572,2.475-6.59,4.102c-2.063,1.665-3.927,3.578-5.563,5.662c-1.618,2.045-3.014,4.248-4.202,6.568
		c-1.229,2.414-2.229,4.941-3,7.541c-0.796,2.711-1.347,5.498-1.644,8.313c-0.307,2.924-0.353,5.875-0.131,8.805
		c0.215,2.842,0.676,5.668,1.396,8.422c0.692,2.639,1.622,5.223,2.782,7.689c1.121,2.369,2.457,4.635,4.006,6.75
		c1.744,2.369,6.173,6.564,6.195,6.564c5.228,4.275,11.56,6.799,18.392,6.799h0.006c2.601,0,5.2-0.367,7.702-1.1
		c2.477-0.719,4.841-1.781,7.044-3.115c2.243-1.363,4.304-3.008,6.159-4.859c1.854-1.854,3.504-3.908,4.931-6.107
		c1.448-2.215,2.675-4.584,3.673-7.037c1.047-2.555,1.844-5.215,2.401-7.92c0.588-2.826,0.909-5.705,0.981-8.592
		C67.868,39.172,67.685,36.247,67.22,33.362 M8.964,52.424H8.124l0.752-2.852c0.073-0.209,0.116-0.199,0.14-0.111
		C8.997,50.491,8.982,51.485,8.964,52.424 M9.375,44.659l-1.687-0.775c-0.094-0.045-0.082-0.078,0.017-0.078h3.618
		c0.104,0,0.109,0.033,0.016,0.078l-1.621,0.775C9.624,44.702,9.47,44.702,9.375,44.659 M7.261,43.069l1.885-1.342
		c-0.012,0.441-0.016,0.887-0.022,1.342H7.261z M7.892,38.545h3.223c0.087,0,0.098,0.033,0.016,0.07l-1.439,0.682
		c-0.088,0.039-0.227,0.039-0.315,0.006l-1.5-0.691C7.794,38.573,7.8,38.545,7.892,38.545 M7.492,37.885l1.732-1.143
		C9.218,37.1,9.212,37.485,9.2,37.885H7.492z M9.833,36.764l1.716,1.121H9.849C9.845,37.506,9.839,37.133,9.833,36.764
		 M9.909,41.733l1.903,1.336H9.933C9.921,42.618,9.915,42.168,9.909,41.733 M10.085,52.424c-0.016-0.939-0.033-1.934-0.05-2.957
		c0.013-0.07,0.067-0.121,0.127,0.082l0.759,2.875H10.085z M34.909,77.946c-5.017,0-9.751-1.51-13.927-4.215
		c3.234-0.021,6.447,0.412,9.64,0.885c3.205,0.473,6.407,1.012,9.632,1.336c1.236,0.127,2.484,0.219,3.727,0.27
		C41.117,77.342,38.068,77.946,34.909,77.946 M49.62,73.204c-3.177,0.33-6.388,0.182-9.56-0.166c-3.172-0.34-6.32-0.879-9.478-1.336
		c-3.254-0.473-6.522-0.879-9.815-0.852c-1.117,0.012-2.228,0.066-3.338,0.176c-1.043-0.924-2.039-1.934-2.984-3.012
		c3.298-0.484,6.652-0.473,9.972-0.236c3.337,0.248,6.646,0.73,9.95,1.221c1.66,0.246,3.322,0.494,4.979,0.715
		c0.83,0.109,4.112,0.361,4.924,0.355c3.315,0,6.647-0.246,9.93-0.779C52.775,70.762,51.243,72.071,49.62,73.204 M57.171,65.754
		c-3.18,0.77-6.441,1.182-9.714,1.348c-1.629,0.088-3.274,0.131-4.909,0.049c-1.65-0.076-3.291-0.346-4.929-0.582
		c-3.291-0.473-6.586-1.002-9.894-1.369c-3.299-0.369-6.619-0.566-9.94-0.402c-1.798,0.094-3.604,0.297-5.38,0.639
		c-0.605-0.846-1.182-1.725-1.727-2.645c2.926-0.604,5.893-0.994,8.879-1.1c3.027-0.109,6.045,0.1,9.047,0.49
		c2.896,0.379,5.771,0.912,8.668,1.303c2.652,0.357,5.316,0.594,7.99,0.594h0.018c2.771,0,5.548-0.248,8.291-0.693
		c1.998-0.324,3.988-0.736,5.945-1.248C58.793,63.407,58.013,64.612,57.171,65.754 M12.999,55.581
		c-1.39-0.918-1.577-2.414-1.495-2.699l4.288-10.109c0.095-0.176,0.138-0.121,0.11,0L12.999,55.581z M15.841,46.043
		c-0.066,4.529-0.127,8.744-0.148,10.762c-0.782-0.225-1.555-0.467-2.221-0.939l2.27-10.025
		C15.802,45.747,15.829,45.889,15.841,46.043 M14.702,37.176h3.224c0.088,0,0.098,0.035,0.016,0.072l-1.446,0.688
		c-0.082,0.043-0.22,0.043-0.302,0.004l-1.506-0.691C14.605,37.211,14.611,37.176,14.702,37.176 M14.302,36.522L16,35.401
		c-0.006,0.363-0.011,0.736-0.013,1.121H14.302z M16.677,35.422l1.682,1.1h-1.666C16.687,36.143,16.683,35.774,16.677,35.422
		 M20.122,50.258c-0.054,2.172-0.108,4.338-0.142,6.014c-0.016,0.012-0.037,0.023-0.055,0.033l-1.439-6.25l0.77-1.824L20.122,50.258
		z M19.546,47.538l0.571-1.352c0.062-0.088,0.093-0.061,0.11,0.012c-0.022,0.873-0.045,1.807-0.072,2.764L19.546,47.538z
		 M18.122,50.907l1.386,5.686c-0.482,0.203-1.088,0.313-1.615,0.385c-0.188,0.027-0.379,0.037-0.567,0.049
		c-0.112,0.012-0.235,0.027-0.345,0.016c-0.006-0.764-0.024-1.918-0.039-3.336L18.122,50.907z M16.923,52.364
		c-0.027-1.879-0.059-4.078-0.093-6.354c0.017-0.188,0.062-0.318,0.153-0.045l0.936,4.041L16.923,52.364z M18.277,49.161
		l-1.473-6.383c-0.013-0.121,0.01-0.182,0.108-0.006l2.045,4.766L18.277,49.161z M21.091,51.145v-0.93
		c-0.039-1.66-0.082-2.43-0.121-3.963c0.012-0.111,0.049-0.182,0.127-0.055l2.561,6.387c-0.418,0.836-0.495,1.127-1.143,1.809
		L21.091,51.145z M22.103,54.805c-0.254,0.291-0.6,0.572-0.891,0.809c-0.023-0.869-0.061-2.002-0.082-3.018L22.103,54.805z
		 M24.702,52.358l2.931-6.287c-0.056,1.803-0.109,4.393-0.166,6.287h-1.195C25.829,52.358,25.136,52.387,24.702,52.358
		 M45.659,44.301h4.229c0.11,0,0.127,0.031,0.053,0.078c-0.014,0.01-1.926,0.916-1.926,0.916c-0.127,0.066-0.297,0.055-0.398,0.006
		l-1.98-0.908C45.525,44.338,45.534,44.301,45.659,44.301 M45.175,43.461l2.213-1.58c-0.006,0.467-0.021,1.523-0.021,1.58H45.175z
		 M45.97,37.225c0,0,0.049-0.014,0.076-0.014h3.536c0.032,0,0.054,0.004,0.065,0.01h0.008l-0.008,0.004
		c0.023,0.012,0.013,0.033-0.051,0.061l-1.588,0.742c-0.088,0.045-0.236,0.045-0.33,0.006l-1.646-0.748
		C45.976,37.258,45.958,37.237,45.97,37.225 M45.595,36.467l1.887-1.352c-0.006,0.434-0.012,0.885-0.018,1.352H45.595z
		 M48.14,35.137l1.906,1.33h-1.882C48.159,36.01,48.152,35.567,48.14,35.137 M48.234,41.881l2.205,1.58h-2.174
		C48.259,42.942,48.245,42.393,48.234,41.881 M54.64,40.178h3.617c0.1,0,0.11,0.033,0.018,0.076l-1.631,0.775
		c-0.088,0.045-0.238,0.045-0.332,0l-1.688-0.775C54.531,40.211,54.536,40.178,54.64,40.178 M54.187,39.442l1.896-1.348
		c-0.009,0.451-0.015,0.891-0.019,1.348H54.187z M56.825,38.1l1.922,1.342h-1.899C56.843,38.991,56.837,38.545,56.825,38.1
		 M55.995,45.879c-0.062,4.379-0.134,9.086-0.181,12.4c-1.061,0.357-1.992,0.461-2.803,0.391l1.801-8.037l1.062-4.729
		C55.921,45.79,55.974,45.725,55.995,45.879 M55.75,43.999l-3.14,13.924l-1.362-3.738l0.013-0.027l4.293-10.301
		C55.668,43.647,55.798,43.508,55.75,43.999 M52.277,58.553c-0.985-0.219-1.764-0.697-2.362-1.219l1.024-2.441L52.277,58.553z
		 M49.527,56.95c-0.607-0.645-0.957-1.281-1.094-1.551c-0.024-2.111-0.07-5.256-0.121-8.631l2.377,7.355L49.527,56.95z
		 M44.349,55.25h-5.18l7.715-8.713L44.349,55.25z M47.306,46.762c-0.027,1.963-0.094,8.246-0.094,8.488h-2.316L47.306,46.762z
		 M56.931,45.872c-0.006-0.143,0.063-0.098,0.117,0.033l2.164,9.34c-0.471,1.105-1.43,1.912-2.123,2.385
		C57.068,55.926,56.935,45.911,56.931,45.872 M59.763,55.196l-2.646-11.094c-0.083-0.67,0.093-0.428,0.227-0.182l4.836,11.275
		H59.763z M64.074,49.786c-0.352,1.771-0.816,3.514-1.385,5.219L56.9,41.26l2.543-1.131c0.263-0.127,0.27-0.506,0.009-0.645
		c0,0-2.498-1.773-2.636-1.875l-0.061-4.215c0.311-0.039,0.602-0.176,0.905-0.225c0.338-0.051,0.655,0.004,0.987,0.064
		c0.302,0.051,0.605,0.078,0.898-0.006c0.28-0.082,0.53-0.236,0.754-0.418c-0.66-0.016-1.195-0.432-1.775-0.697
		c-0.297-0.137-0.614-0.215-0.936-0.252c-0.314-0.033-0.689-0.057-0.996,0.037c-0.031-0.246-0.064-0.5-0.111-0.775h-0.129
		c-0.197,1.156-0.188,2.42-0.201,3.584c-0.008,0.82-0.016,1.645-0.028,2.463c-0.004,0.148-0.004,0.291-0.009,0.439l-2.618,1.869
		c-0.257,0.133-0.263,0.512,0,0.645v0.006l2.47,1.131l-4.984,12.133l-2.573-7.801l2.847-1.336c0.293-0.154,0.305-0.588,0.01-0.748
		c0,0-2.681-1.879-3.031-2.131c-0.016-0.984-0.034-2.051-0.043-2.98l2.601-1.227v-0.006c0.257-0.119,0.271-0.504,0.011-0.643
		c0,0-2.326-1.654-2.666-1.895c-0.025-1.914-0.045-3.828-0.07-5.734c0.146,0,0.297-0.055,0.438-0.094
		c0.166-0.049,0.331-0.1,0.497-0.127c0.332-0.061,0.655-0.01,0.987,0.051c0.313,0.055,0.634,0.088,0.945,0
		c0.281-0.084,0.526-0.236,0.754-0.418c-0.66-0.018-1.199-0.436-1.776-0.699c-0.296-0.137-0.612-0.213-0.935-0.252
		c-0.318-0.033-0.688-0.055-0.992,0.039c-0.03-0.248-0.063-0.502-0.112-0.781h-0.127v0.006c-0.181,1.061-0.192,2.121-0.203,3.193
		c-0.006,0.973-0.013,1.945-0.026,2.918c-0.01,0.633-0.019,1.266-0.027,1.898l-2.645,1.889c-0.265,0.133-0.265,0.518,0,0.648
		l2.588,1.227h0.006c-0.008,0.924-0.024,2.012-0.039,2.986l-3.028,2.127c-0.302,0.152-0.302,0.592,0,0.748l2.789,1.334L38.45,55.25
		c-0.167,0-1.253,0.01-1.408,0.209c-0.224,0.182-0.235,0.455-0.136,0.691c0.128,0.314,0.395,0.533,0.684,0.699
		c0.146,0.088,0.305,0.164,0.467,0.225c0.019,0.012,0.037,0.027,0.053,0.045c0,0,0.781,2.605,4.138,3.826h-0.004
		c0,0,0.088,0.027,0.065,0.1c-0.004,0.016-0.014,0.02-0.024,0.031c-0.024,0.012-0.052,0.018-0.085,0.021
		c-3.206-0.197-6.366-0.725-9.529-1.219c-1.212-0.199-2.416-0.381-3.632-0.539c-0.817-0.105-1.636-0.199-2.45-0.348
		c-0.082-0.027-0.121-0.055-0.138-0.088v-0.004c-0.005-0.006-0.005-0.012-0.005-0.012v-0.021c0-0.006,0.005-0.006,0.005-0.006
		c0.006-0.021,0.026-0.045,0.04-0.061c0.016-0.012,0.027-0.016,0.027-0.016c4.457-1.332,5.392-4.58,5.392-4.58
		c0.06-0.027,0.116-0.061,0.17-0.088c0.121-0.055,0.243-0.109,0.353-0.176c0.285-0.164,0.555-0.385,0.682-0.697
		c0.102-0.242,0.086-0.512-0.137-0.693c-0.166-0.221-1.428-0.215-1.428-0.215l-0.009,0.012h-0.216
		c-0.008-0.699-0.025-2.496-0.064-3.662c0.133,0.057,0.289,0.006,0.418-0.027c0.166-0.049,0.33-0.104,0.498-0.137
		c0.344-0.082,0.674-0.061,1.024,0c0.331,0.061,0.665,0.115,1,0.027c0.297-0.07,0.562-0.236,0.792-0.422
		c-0.672-0.023-1.219-0.463-1.813-0.721c-0.314-0.139-0.648-0.215-0.982-0.242c-0.321-0.027-0.717-0.055-1.008,0.088
		c-0.022-0.281-0.049-0.521-0.078-0.699h-0.125c-0.172,0.996-0.176,4.453-0.182,5.795l-2.238,0.006
		c-0.071-2.436-0.176-5.695-0.233-7.779l1.938-4.154c0.263,0.115,0.572,0.137,0.846,0.236c0.305,0.104,0.55,0.285,0.792,0.488
		c0.237,0.193,0.474,0.385,0.765,0.479c0.313,0.1,0.648,0.088,0.967,0.033c-0.549-0.33-0.816-0.936-1.17-1.441
		c-0.188-0.264-0.418-0.488-0.674-0.68c-0.268-0.199-0.586-0.406-0.91-0.484c0.076-0.227,0.176-0.533,0.184-0.676
		c-0.008-0.027,0-0.066-0.057-0.105c-0.013,0-0.021-0.006-0.033-0.006c-0.088,0.012-0.11,0.066-0.17,0.139
		c-0.172,0.213-0.404,0.627-0.442,0.697l-2.065,4.436c-0.021-0.697-0.037-1.4-0.043-2.1c-0.006-0.879-0.045-1.754-0.193-2.621
		h-0.125c-0.182,1.055-0.188,2.115-0.199,3.193c-0.01,0.957-0.043,1.918-0.07,2.881l-3.563,7.377l-3.188-7.822
		c-0.023-0.969-0.052-1.936-0.061-2.902c-0.018-1.1-0.018-2.199-0.205-3.287h-0.12c-0.187,1.072-0.187,2.148-0.205,3.232
		c-0.009,0.982-0.036,1.967-0.06,2.951l-1.022,2.412l-2.489-5.809c-0.017-0.969-0.025-1.92-0.043-2.838l2.27-1.07
		c0.23-0.115,0.236-0.451,0.006-0.572c0,0-1.92-1.379-2.327-1.666c-0.026-2-0.043-4.002-0.075-6.002
		c0.148,0,0.291-0.055,0.434-0.094c0.16-0.049,0.324-0.1,0.494-0.127c0.34-0.061,0.654-0.01,0.983,0.051
		c0.319,0.055,0.634,0.088,0.946,0c0.283-0.084,0.533-0.236,0.755-0.418c-0.64-0.018-1.177-0.412-1.733-0.682
		c-0.297-0.139-0.609-0.227-0.935-0.264c-0.321-0.039-0.703-0.066-1.026,0.033c-0.027-0.264-0.061-0.529-0.105-0.787h-0.127
		c-0.219,1.281-0.192,2.566-0.209,3.859c-0.01,1.248-0.032,2.49-0.049,3.738c-0.006,0.23-0.006,0.461-0.012,0.691l-2.318,1.66
		c-0.231,0.115-0.237,0.457,0,0.578l2.269,1.07c-0.009,1.035-0.039,2.723-0.039,2.838l-4.62,10.861l-0.679-2.496h0.595v-0.006h0.297
		c0.133,0,0.27-0.043,0.391-0.088c0.088-0.027,0.291-0.098,0.291-0.219c0-0.115-0.182-0.182-0.264-0.215
		c-0.127-0.049-0.275-0.094-0.418-0.094h-1.056L10,47.065c-0.013-0.697-0.024-1.418-0.036-2.111l2.551-1.197
		c0.26-0.133,0.264-0.504,0.012-0.643c0,0-2.452-1.736-2.627-1.854c-0.006-0.506-0.018-1.209-0.024-1.676l2.3-1.082
		c0.23-0.117,0.235-0.457,0.01-0.578c0,0-2.043-1.463-2.363-1.688c-0.021-1.672-0.038-2.793-0.043-2.914
		c0.263,0.021,0.554-0.131,0.807-0.182c0.293-0.055,0.572-0.027,0.859,0.023c0.279,0.055,0.561,0.092,0.839,0.027
		c0.265-0.066,0.5-0.209,0.713-0.385c-0.586-0.012-1.063-0.385-1.575-0.617c-0.264-0.119-0.55-0.191-0.841-0.219
		c-0.28-0.027-0.616-0.055-0.884,0.049c-0.03-0.219-0.061-0.445-0.111-0.691H9.464c-0.182,0.918-0.191,1.842-0.197,2.77
		c-0.012,0.797-0.022,1.342-0.039,2.139L6.875,37.92c-0.235,0.119-0.235,0.459,0,0.576l2.298,1.088
		c-0.007,0.473-0.011,1.176-0.021,1.676l-2.584,1.848c-0.264,0.127-0.264,0.512-0.006,0.645l2.529,1.201
		c-0.013,0.693-0.027,1.396-0.039,2.09l-0.455,1.742H7.536c-0.132,0-0.269,0.039-0.39,0.082c-0.088,0.033-0.291,0.105-0.291,0.227
		c0,0.115,0.179,0.182,0.263,0.209c0.131,0.049,0.28,0.098,0.418,0.098h0.291c0,0,0,0.006,0.004,0.006h0.601l-0.797,3.018H6.359
		c-0.776-2.912-1.242-5.898-1.407-8.904c-0.171-3.008-0.044-6.029,0.379-9.016c0.392-2.764,1.05-5.5,1.968-8.141
		c0.875-2.512,1.989-4.941,3.348-7.229c0.715-1.203,1.496-2.369,2.351-3.484c3.459,1.16,7.935,0.094,7.935,0.094
		c4.033-0.727,6.547-0.611,8.004-0.385l0.785,0.137c0.084-0.494,0.145-0.846,0.293-1.313c-4.224-1.336-8.967-0.688-8.967-0.688
		c-2.88,0.264-4.627-0.324-5.535-0.824c0,0,1.819-1.93,3.299-2.997c1.303,0.94,2.94,1.401,4.479,1.677
		c1.017,0.182,2.048,0.258,3.056,0.49c1.022,0.23,2.041,0.533,3.028,0.879c0.353,0.121,0.819,0.346,1.024,0.445
		c0.185-0.406,0.445-0.787,0.709-1.154l-0.655-0.418c-1.302-0.748-2.528-1.133-3.903-1.545c-0.923-0.279-1.804-0.593-2.664-1.039
		c-1.172-0.604-1.896-1.39-1.957-1.445c0,0,2-1.227,3.891-1.924c0.875,1.237,2.496,1.93,3.605,2.881
		c1.563,1.33,2.395,2.582,2.469,2.715c0.365-0.275,0.709-0.473,1.182-0.654c-0.624-1.369-1.512-2.945-2.586-3.941
		C30,6.19,29.271,5.405,29.066,4.614c0,0,2.513-0.633,4.447-0.66l0.721,6.354c0.27-0.049,0.675-0.043,0.675-0.043
		s0.256-0.006,0.676,0.043l0.72-6.348c0,0,1.707,0.082,3.1,0.357c0.771,0.152,1.355,0.302,1.355,0.302
		c-0.222,0.774-0.929,1.577-1.408,2.022c-1.09,1.018-1.938,2.567-2.567,3.953c0.368,0.164,0.786,0.33,1.17,0.648
		c0.733-1.088,1.634-2.012,2.461-2.721C41.5,7.577,43.124,6.844,44,5.641c0.222,0.082,1.199,0.457,2.759,1.254l1.162,0.664
		c-0.035,0.033-1.328,1.088-1.97,1.451c-0.837,0.479-1.742,0.76-2.655,1.039c-1.382,0.412-2.605,0.797-3.912,1.545l-0.66,0.408
		c0.26,0.322,0.506,0.713,0.721,1.158c0.234-0.109,0.684-0.324,1.018-0.439c0.993-0.346,2.006-0.648,3.036-0.879
		c1.002-0.232,2.032-0.309,3.048-0.49c1.525-0.27,3.178-0.758,4.469-1.677c1.637,1.271,3.299,3.001,3.299,3.001
		c-0.91,0.5-2.664,1.078-5.524,0.82c0,0-4.748-0.654-8.959,0.67c0.132,0.396,0.181,0.676,0.274,1.287l0.836-0.133
		c1.494-0.215,3.943-0.303,7.967,0.424c0,0,4.455,1.061,7.917-0.088c0.344,0.445,0.676,0.9,0.997,1.369
		c1.486,2.154,2.734,4.469,3.75,6.875c1.07,2.535,1.878,5.18,2.441,7.873c0.586,2.836,0.891,5.732,0.924,8.629
		C64.972,43.547,64.687,46.702,64.074,49.786"/>
</g>
</svg>
